@startuml
skinparam packageStyle rectangle
skinparam shadowing false
skinparam linetype polyline
skinparam classAttributeIconSize 0

package "UI" {
    class RegisterClientUI {
    }
}

package "Controller" {
    class ClientController {
        +getAllClients() : List<Client>
        +deleteClient(clientID) : Client
    }
}

package "Service" {
    class ClientService {
        +getClients() : List<Client>
        -getClientByID((clientID) : Client
        +deleteClient(clientID) : Client
    }
}

package "Repository" {
    class Repositories {
        -Repositories()
        +getInstance() : Repositories
        +getClientRepository() : ClientRepository
    }

    class ClientRepository {
        +getAll() : List<Client>
        +getById(clientID) : boolean
        +delete(client) : boolean
    }
}

package "Model" {
    class Client {
        -clientID : int
        -address : Address
        -name : String
        -vatin : String
        -phoneNumber : int
        -email : String
        -type : CompanyType
        +Client(clientID, name, address, vatin, phoneNumber, email, type)
    }

    class Address {
        -id : int
        -street : String
        -zipCode : String
        -town : String
        -country : String
        +Address(id, street, zipCode, town, country)
    }

    enum CompanyType {
        INDIVIDUAL
        COMPANY
    }
}

package "Exception" {
    class ClientException {
        +clientNotFound(clientID) : ClientException
    }

    class RuntimeException
}


RegisterClientUI ..> ClientController
ClientController ..> ClientService
ClientService ..> Repositories : repositories
ClientService ..> ClientRepository : clientRepository
ClientService ..> Client : client
Repositories --> Repositories : instance
Repositories "1" --> "1" ClientRepository : clientRepository
ClientRepository "1" --> "*" Client : categories
Client "*" --> "1" Address : has
Client "*" --> "1" CompanyType : has
ClientService ..> ClientException : throws
ClientException --|> RuntimeException

@enduml
